<svg width="540" height="300" viewBox="0 0 540 300" fill="none" xmlns="http://www.w3.org/2000/svg">
<path d="M150 0L240 90L210 120L120 30L150 0Z" fill="#B3261E"/>
<path d="M450 60L480 90L450 120L420 90L450 60Z" fill="#8C1D18" fill-opacity="0.32"/>
<path d="M510 120L540 150L510 180L480 150L510 120Z" fill="#8C1D18" fill-opacity="0.32"/>
<path d="M450 180L480 210L450 240L420 210L450 180Z" fill="#8C1D18" fill-opacity="0.32"/>
<path d="M90 60L60 90L90 120L120 90L90 60Z" fill="#8C1D18" fill-opacity="0.32"/>
<path d="M30 120L0 150L30 180L60 150L30 120Z" fill="#8C1D18" fill-opacity="0.32"/>
<path d="M90 180L60 210L90 240L120 210L90 180Z" fill="#8C1D18" fill-opacity="0.32"/>
<path d="M330 180L300 210L390 300L420 270L330 180Z" fill="#B3261E"/>
<path d="M390 0L420 30L150 300L120 270L390 0Z" fill="#B3261E"/>
</svg>
