<svg width="82" height="100" viewBox="0 0 82 100" fill="none" xmlns="http://www.w3.org/2000/svg">
<path fill-rule="evenodd" clip-rule="evenodd" d="M80.7674 54.8047L74.7957 54.2235C74.9307 52.8356 75 51.4268 75 50C75 48.5732 74.9307 47.1644 74.7957 45.7765L80.7674 45.1953C80.9213 46.7761 81 48.3788 81 50C81 51.6212 80.9213 53.2239 80.7674 54.8047ZM78.9022 35.7712L73.1599 37.511C72.337 34.7948 71.252 32.1916 69.9338 29.7304L75.2229 26.8975C76.7257 29.7032 77.9633 32.6723 78.9022 35.7712ZM69.879 18.9142L65.243 22.7232C63.4537 20.5454 61.4546 18.5463 59.2768 16.757L63.0858 12.121C65.5655 14.1584 67.8416 16.4345 69.879 18.9142ZM55.1026 6.77715L52.2696 12.0662C49.8084 10.748 47.2052 9.66301 44.4891 8.84009L46.2288 3.09785C49.3277 4.03674 52.2968 5.27434 55.1026 6.77715ZM36.8047 1.23257L36.2235 7.20436C34.8356 7.06928 33.4268 7 32 7C30.5732 7 29.1644 7.06928 27.7765 7.20436L27.1953 1.23257C28.7761 1.07873 30.3789 1 32 1C33.6212 1 35.2239 1.07873 36.8047 1.23257ZM17.7712 3.09785L19.511 8.84009C16.7948 9.663 14.1916 10.748 11.7304 12.0662L8.89746 6.77715C11.7032 5.27434 14.6723 4.03673 17.7712 3.09785ZM8.89746 93.2228L11.7304 87.9338C14.1916 89.252 16.7948 90.337 19.511 91.1599L17.7712 96.9022C14.6723 95.9633 11.7032 94.7257 8.89746 93.2228ZM27.1953 98.7674L27.7765 92.7956C29.1644 92.9307 30.5732 93 32 93C33.4268 93 34.8356 92.9307 36.2235 92.7956L36.8047 98.7674C35.2239 98.9213 33.6212 99 32 99C30.3789 99 28.7761 98.9213 27.1953 98.7674ZM46.2288 96.9022L44.489 91.1599C47.2052 90.337 49.8084 89.252 52.2696 87.9338L55.1026 93.2228C52.2968 94.7257 49.3277 95.9633 46.2288 96.9022ZM63.0858 87.879L59.2768 83.243C61.4546 81.4537 63.4537 79.4546 65.243 77.2768L69.879 81.0858C67.8416 83.5655 65.5655 85.8416 63.0858 87.879ZM75.2229 73.1025C76.7257 70.2968 77.9633 67.3277 78.9022 64.2288L73.1599 62.489C72.337 65.2052 71.252 67.8084 69.9338 70.2696L75.2229 73.1025Z" fill="#707070"/>
<path d="M49.2405 39.8331L39.5737 49.4999L49.24 59.1661L44.4068 63.9993L34.7406 54.333L25.0747 63.9989L20.2416 59.1657L29.9074 49.4999L20.2411 39.8335L25.0742 35.0004L34.7406 44.6667L44.4073 35L49.2405 39.8331Z" fill="#707070"/>
</svg>
